<svg width="1130" height="403" viewBox="0 0 1130 403" fill="none" xmlns="http://www.w3.org/2000/svg">
<path d="M394.5 357L391.001 356.944L208.001 354.032L38.0005 351.326L17.5003 351C-12.8044 288.363 3.10251 244.219 36.0005 181.5C85.6528 145.099 124.61 139.137 252.5 122C329.282 74.2728 372.686 49.9116 451 12.5C566.755 0.0709991 644.906 -1.34786 805.501 5C888.284 20.8865 927.015 36.0989 981.001 75.5C1008.45 94.3027 1013.2 97.3642 1020.5 102C1063.6 116.449 1090.59 124.629 1113 138.5C1114.37 170.715 1117.04 186.957 1126 212C1129.37 245.39 1130.3 264.11 1126 297.5C1124.26 311.154 1121.52 317.476 1113 326C1101.11 335.927 1091.93 338.038 1073.5 339C1072.97 327.677 1073 321.322 1073.5 310C1073.98 298.089 1074.14 291.411 1073.5 279.5C1064.4 230.055 1039 207.5 1029 204.5C1019 201.5 1006.57 197.414 991.501 204.5C975.001 212.26 951.001 234.5 938.001 287.5L932.001 326C922.223 338.866 914.357 342.787 896.501 344.5C896.501 344.5 573.5 353 569.5 350C565.501 347 570.5 313.5 569.5 280.5C568.501 247.5 537.501 198.5 517.5 194C497.5 189.5 486.5 189.5 470.501 197C454.501 204.5 434.501 224 422.501 254.5C417.578 269.575 414.752 278.464 410.501 295.5C408.645 312.524 407.778 322.162 406.501 339.5L394.5 357Z" fill="#D9D9D9" fill-opacity="0.59"/>
<path d="M1073.5 310C1073 321.322 1072.97 327.677 1073.5 339C1060.26 367.897 1052.21 383.266 1030 402H933C914.208 389.226 907.574 381.004 902.5 364.5H721C715.809 378.23 710.422 386.073 693.5 400.5H617.5C602.93 390.028 596.326 382.351 588 364.5H551.5C546.691 379.319 541.195 387.232 525.5 400.5H423.5C406.379 392.996 398.543 382.564 391.001 356.944L394.5 357L406.501 339.5C407.778 322.162 408.645 312.524 410.501 295.5C414.752 278.464 417.578 269.575 422.501 254.5C434.501 224 454.501 204.5 470.501 197C486.5 189.5 497.5 189.5 517.5 194C537.501 198.5 568.501 247.5 569.5 280.5C569.945 295.165 569.204 309.928 568.595 322.07C567.834 337.251 567.278 348.333 569.5 350C573.5 353 896.501 344.5 896.501 344.5C914.357 342.787 922.223 338.866 932.001 326L938.001 287.5C951.001 234.5 975.001 212.26 991.501 204.5C1006.14 197.617 1018.28 201.274 1028.13 204.239C1028.42 204.327 1028.71 204.414 1029 204.5C1039 207.5 1064.4 230.055 1073.5 279.5C1074.14 291.411 1073.98 298.089 1073.5 310Z" fill="#212121" fill-opacity="0.59"/>
<path d="M38.0005 351.326L208.001 354.032C198.527 376.079 190.194 387.201 165 400.5H81.5001C57.5801 386.289 48.1848 374.167 38.0005 351.326Z" fill="#212121" fill-opacity="0.59"/>
<path d="M391.001 356.944L394.5 357L406.501 339.5C407.778 322.162 408.645 312.524 410.501 295.5C414.752 278.464 417.578 269.575 422.501 254.5C434.501 224 454.501 204.5 470.501 197C486.5 189.5 497.5 189.5 517.5 194C537.501 198.5 568.501 247.5 569.5 280.5M391.001 356.944L208.001 354.032M391.001 356.944C398.543 382.564 406.379 392.996 423.5 400.5H525.5C541.195 387.232 546.691 379.319 551.5 364.5H588C596.326 382.351 602.93 390.028 617.5 400.5H693.5C710.422 386.073 715.809 378.23 721 364.5H902.5C907.574 381.004 914.208 389.226 933 402H1030C1052.21 383.266 1060.26 367.897 1073.5 339M208.001 354.032L38.0005 351.326M208.001 354.032C198.527 376.079 190.194 387.201 165 400.5H81.5001C57.5801 386.289 48.1848 374.167 38.0005 351.326M38.0005 351.326L17.5003 351C-12.8044 288.363 3.10251 244.219 36.0005 181.5C85.6528 145.099 124.61 139.137 252.5 122C329.282 74.2728 372.686 49.9116 451 12.5C566.755 0.0709991 644.906 -1.34786 805.501 5C888.284 20.8865 927.015 36.0989 981.001 75.5C1008.45 94.3027 1013.2 97.3642 1020.5 102C1063.6 116.449 1090.59 124.629 1113 138.5C1114.37 170.715 1117.04 186.957 1126 212C1129.37 245.39 1130.3 264.11 1126 297.5C1124.26 311.154 1121.52 317.476 1113 326C1101.11 335.927 1091.93 338.038 1073.5 339M1073.5 339C1072.97 327.677 1073 321.322 1073.5 310C1073.98 298.089 1074.14 291.411 1073.5 279.5C1064.4 230.055 1039 207.5 1029 204.5M1029 204.5C1019 201.5 1006.57 197.414 991.501 204.5M1029 204.5C1028.71 204.414 1028.42 204.327 1028.13 204.239C1018.28 201.274 1006.14 197.617 991.501 204.5M991.501 204.5C975.001 212.26 951.001 234.5 938.001 287.5L932.001 326C922.223 338.866 914.357 342.787 896.501 344.5C896.501 344.5 573.5 353 569.5 350M569.5 350C565.501 347 570.5 313.5 569.5 280.5M569.5 350C567.278 348.333 567.834 337.251 568.595 322.07C569.204 309.928 569.945 295.165 569.5 280.5" stroke="black"/>
</svg>
