<svg width="1026" height="374" viewBox="0 0 1026 374" fill="none" xmlns="http://www.w3.org/2000/svg">
<ellipse cx="467.5" cy="297.5" rx="50" ry="76" fill="#D9D9D9"/>
<ellipse cx="980.5" cy="298.5" rx="45" ry="74" fill="#D9D9D9"/>
<path d="M3 182.5C12.5 187 21.0161 185.348 35.8193 186.511C187.414 188.928 257.193 186.798 351.5 177.956C362.757 176.901 363.5 176.5 376.5 174" stroke="#ECECEC" stroke-width="10"/>
<path d="M733.37 0.567981C697.103 2.56798 669.77 11.368 646.036 28.8346C628.57 41.768 603.236 68.3013 585.903 91.9013C571.503 111.501 570.17 114.568 573.903 118.301C576.17 120.568 578.17 120.968 585.636 120.701C597.503 120.301 657.77 116.701 680.703 115.101C696.57 113.901 739.903 111.368 816.036 107.101C843.636 105.501 906.17 102.301 932.703 100.968C951.903 100.035 955.37 98.8347 955.37 93.1013C955.37 81.5013 910.17 40.568 881.37 26.168C843.103 6.96798 788.436 -2.49869 733.37 0.567981ZM661.77 82.4347C665.77 84.568 669.77 87.9013 670.836 90.0347C673.103 94.4347 672.036 99.9013 668.703 101.768C666.836 102.701 611.636 107.101 600.836 107.101C592.703 107.101 604.836 89.9013 617.37 83.5013C627.503 78.3013 629.77 77.768 642.703 78.168C653.103 78.4347 655.636 79.1013 661.77 82.4347Z" fill="#323232"/>
<path d="M506.702 4.56788C464.302 5.63455 444.436 8.70122 413.769 18.5679C392.836 25.3679 369.236 37.9012 323.369 66.5679C300.969 80.5679 278.569 94.3012 273.636 97.1012C263.102 102.835 262.302 105.901 270.702 107.368C279.902 108.968 527.636 108.568 535.636 106.968C547.769 104.435 552.036 100.968 570.436 79.2346C591.102 54.7012 621.236 23.5012 631.102 16.1679C638.302 10.8345 640.302 5.63455 635.902 3.90121C633.236 2.83455 553.102 3.23455 506.702 4.56788Z" fill="#323232"/>
<path d="M900.959 137.725C895.892 137.991 890.959 138.925 890.026 139.725C887.892 141.458 887.759 147.725 889.892 149.858C892.026 151.991 924.559 151.858 930.959 149.725C936.426 147.858 937.759 143.325 934.159 139.325C931.759 136.658 927.092 136.525 900.959 137.725Z" fill="#323232"/>
<path d="M725.225 144.391C718.558 145.058 716.158 149.591 719.492 154.791C722.025 158.524 725.625 158.924 750.025 157.191C761.892 156.524 763.358 156.124 765.225 153.191C767.092 150.391 767.092 149.858 765.092 146.791C762.958 143.458 762.558 143.458 746.558 143.724C737.625 143.858 728.025 144.124 725.225 144.391Z" fill="#323232"/>
</svg>
