<svg width="1057" height="212" viewBox="0 0 1057 212" fill="none" xmlns="http://www.w3.org/2000/svg">
<path d="M1056.5 120C1056 131.322 1055.97 137.677 1056.5 149C1043.26 177.897 1035.21 193.266 1013 212H916C897.208 199.226 890.574 191.004 885.5 174.5H704C698.809 188.23 693.422 196.073 676.5 210.5H600.5C585.93 200.028 579.326 192.351 571 174.5H534.5C529.691 189.319 524.195 197.232 508.5 210.5H406.5C389.379 202.996 381.543 192.564 374.001 166.944L377.5 167L389.501 149.5C390.778 132.162 391.645 122.524 393.501 105.5C397.752 88.4645 400.578 79.5749 405.501 64.5C417.501 34 437.501 14.5 453.501 7.00001C469.5 -0.500013 480.5 -0.500022 500.5 4C520.501 8.50002 551.501 57.5 552.5 90.5001C552.945 105.165 552.204 119.928 551.595 132.07C550.834 147.251 550.278 158.333 552.5 160C556.5 163 879.501 154.5 879.501 154.5C897.357 152.787 905.223 148.866 915.001 136L921.001 97.5C934.001 44.5 958.001 22.2599 974.501 14.5C989.136 7.61725 1001.28 11.2742 1011.13 14.2388C1011.42 14.3266 1011.71 14.4137 1012 14.5C1022 17.5 1047.4 40.0554 1056.5 89.5001C1057.14 101.411 1056.98 108.089 1056.5 120Z" fill="#212121"/>
<path d="M21.0005 161.326L191.001 164.032C181.527 186.079 173.194 197.201 148 210.5H64.5001C40.5801 196.289 31.1848 184.167 21.0005 161.326Z" fill="#212121"/>
</svg>
